<svg xmlns="http://www.w3.org/2000/svg" viewBox="0 0 500 500"><path d="M250.3-.006l-.002.002-55.11 31.67 125.3 74.844 56.152-33.598L250.29-.006zm-146.62 85.05L33.53 124.56l-.33 248.93.574.332v.094l57.506 33.202v-248.93l69-39.05-56.62-34.094zm291.14 265.13L250.25 433.54l-63.193-36.445v66.412l63.232 36.508 144.52-83.44v-66.402z" fill="#333"/><path d="M180.1 40.154l-61.248 36.143 56.648 34.297L236.543 74.3zM393.57 82.7l-.006.004-56.562 32.77 72.293 42.722v98.955l-91.527 53-1.285-99.234-142.48-83.6-68.443 39.053.217 183.8-.52 65.046 64.895 35.05v-79.676l80.152 46.275 159-91.795.012 83.128 57.508-33.203-.012-250.038zm-145.14 2.277l-59.305 33.596 144.86 83.826-.143 75.248.54-.314v1.602l58.568-33.814v-76.703zm-78.285 192.4l16.92 10.43-.004 24.926-16.916-9.766v-.713h.045z" fill="#555"/></svg>
